<?xml version="1.0" encoding="utf-8"?>
<!-- Generator: Adobe Illustrator 16.0.0, SVG Export Plug-In . SVG Version: 6.00 Build 0)  -->
<!DOCTYPE svg PUBLIC "-//W3C//DTD SVG 1.1//EN" "http://www.w3.org/Graphics/SVG/1.1/DTD/svg11.dtd">
<svg version="1.1" id="Layer_1" xmlns="http://www.w3.org/2000/svg" xmlns:xlink="http://www.w3.org/1999/xlink" x="0px" y="0px"
	 width="250px" height="250px" viewBox="0 0 250 250" enable-background="new 0 0 250 250" xml:space="preserve">
<symbol  id="RSS" viewBox="-9.82 -9.821 19.64 19.644">
	<path id="circle_3_" fill="#29ABE2" d="M-4.557-7.194c0-1.454-1.179-2.627-2.635-2.627c-1.45,0-2.629,1.174-2.629,2.627
		c0,1.449,1.179,2.636,2.629,2.636C-5.735-4.558-4.557-5.745-4.557-7.194z"/>
	<path fill="#29ABE2" d="M3.082-9.674h-3.463c-0.045,2.469-1.023,4.782-2.765,6.526C-4.891-1.4-7.193-0.419-9.65-0.375v3.451
		C-2.672,2.982,2.988-2.685,3.082-9.674L3.082-9.674z"/>
	<path fill="#29ABE2" d="M9.82-9.674H6.365C6.269-0.869-0.859,6.276-9.644,6.372v3.451C1.046,9.726,9.724,1.033,9.82-9.674
		L9.82-9.674z"/>
</symbol>
<use xlink:href="#RSS"  width="19.64" height="19.644" x="-9.82" y="-9.821" transform="matrix(12.2199 0 0 -12.2177 125.0029 125.0059)" overflow="visible"/>
<path fill="#FFFFFF" d="M-42.046,159.373c4.575,0,116.994,26.797,116.994,26.797l15.686,90.85l274.51-16.993L302.398-62.85
	L41.614-76.575l-77.778,45.098l-5.882,188.889"/>
</svg>
